<svg width="19" height="19" viewBox="0 0 19 19" fill="none" xmlns="http://www.w3.org/2000/svg">
<path fill-rule="evenodd" clip-rule="evenodd" d="M3.00024 8.04211C3.04775 7.99448 3.1042 7.95669 3.16634 7.9309C3.22848 7.90512 3.29509 7.89185 3.36237 7.89185C3.42965 7.89185 3.49626 7.90512 3.5584 7.9309C3.62054 7.95669 3.67698 7.99448 3.7245 8.04211L9.50011 13.8187L15.2757 8.04211C15.3718 7.94607 15.502 7.89211 15.6379 7.89211C15.7737 7.89211 15.9039 7.94607 16 8.04211C16.096 8.13815 16.15 8.26841 16.15 8.40424C16.15 8.54006 16.096 8.67032 16 8.76637L9.86224 14.9041C9.81472 14.9517 9.75828 14.9895 9.69614 15.0153C9.634 15.0411 9.56739 15.0544 9.50011 15.0544C9.43283 15.0544 9.36622 15.0411 9.30408 15.0153C9.24194 14.9895 9.18549 14.9517 9.13798 14.9041L3.00024 8.76637C2.95261 8.71885 2.91482 8.66241 2.88903 8.60027C2.86325 8.53813 2.84998 8.47152 2.84998 8.40424C2.84998 8.33696 2.86325 8.27034 2.88903 8.20821C2.91482 8.14607 2.95261 8.08962 3.00024 8.04211Z" fill="#DDD4D4"/>
<path fill-rule="evenodd" clip-rule="evenodd" d="M3.00024 3.95031C3.04775 3.90268 3.1042 3.86489 3.16634 3.83911C3.22848 3.81332 3.29509 3.80005 3.36237 3.80005C3.42965 3.80005 3.49626 3.81332 3.5584 3.83911C3.62054 3.86489 3.67698 3.90268 3.7245 3.95031L9.50011 9.72695L15.2757 3.95031C15.3233 3.90276 15.3797 3.86504 15.4419 3.8393C15.504 3.81356 15.5706 3.80032 15.6379 3.80032C15.7051 3.80032 15.7717 3.81356 15.8338 3.8393C15.896 3.86504 15.9524 3.90276 16 3.95031C16.0475 3.99787 16.0853 4.05433 16.111 4.11646C16.1367 4.17859 16.15 4.24519 16.15 4.31244C16.15 4.37969 16.1367 4.44629 16.111 4.50842C16.0853 4.57056 16.0475 4.62701 16 4.67457L9.86224 10.8123C9.81472 10.8599 9.75828 10.8977 9.69614 10.9235C9.634 10.9493 9.56739 10.9626 9.50011 10.9626C9.43283 10.9626 9.36622 10.9493 9.30408 10.9235C9.24194 10.8977 9.18549 10.8599 9.13798 10.8123L3.00024 4.67457C2.95261 4.62706 2.91482 4.57061 2.88903 4.50847C2.86325 4.44634 2.84998 4.37972 2.84998 4.31244C2.84998 4.24516 2.86325 4.17855 2.88903 4.11641C2.91482 4.05427 2.95261 3.99783 3.00024 3.95031Z" fill="#DDD4D4"/>
</svg>
