<svg width="16" height="16" viewBox="0 0 16 16" fill="none" xmlns="http://www.w3.org/2000/svg">
<path fill-rule="evenodd" clip-rule="evenodd" d="M1 8.0001C1 7.86749 1.05268 7.74032 1.14645 7.64655C1.24021 7.55278 1.36739 7.5001 1.5 7.5001L13.293 7.5001L10.146 4.3541C10.0521 4.26021 9.99937 4.13288 9.99937 4.0001C9.99937 3.86733 10.0521 3.73999 10.146 3.6461C10.2399 3.55221 10.3672 3.49947 10.5 3.49947C10.6328 3.49947 10.7601 3.55221 10.854 3.6461L14.854 7.6461C14.9006 7.69255 14.9375 7.74772 14.9627 7.80847C14.9879 7.86921 15.0009 7.93433 15.0009 8.0001C15.0009 8.06587 14.9879 8.13099 14.9627 8.19173C14.9375 8.25248 14.9006 8.30765 14.854 8.3541L10.854 12.3541C10.7601 12.448 10.6328 12.5007 10.5 12.5007C10.3672 12.5007 10.2399 12.448 10.146 12.3541C10.0521 12.2602 9.99937 12.1329 9.99937 12.0001C9.99937 11.8673 10.0521 11.74 10.146 11.6461L13.293 8.5001L1.5 8.5001C1.36739 8.5001 1.24021 8.44742 1.14645 8.35365C1.05268 8.25989 1 8.13271 1 8.0001Z" fill="white"/>
</svg>
