<svg width="42" height="42" viewBox="0 0 42 42" fill="none" xmlns="http://www.w3.org/2000/svg">
<circle cx="21" cy="21" r="21" fill="#151515"/>
<path d="M8.52 26.12H11.4C12.1333 26.12 12.8133 25.9933 13.44 25.74C14.0667 25.4733 14.6133 25.1133 15.08 24.66C15.56 24.1933 15.9267 23.6533 16.18 23.04C16.4467 22.4133 16.58 21.7333 16.58 21C16.58 20.28 16.4467 19.6067 16.18 18.98C15.9267 18.3533 15.56 17.8133 15.08 17.36C14.6133 16.8933 14.0667 16.5333 13.44 16.28C12.8133 16.0133 12.1333 15.88 11.4 15.88H8.52V26.12ZM6.42 28V14H11.36C12.4133 14 13.3867 14.18 14.28 14.54C15.1733 14.8867 15.9533 15.3733 16.62 16C17.2867 16.6267 17.8067 17.3667 18.18 18.22C18.5533 19.0733 18.74 20 18.74 21C18.74 22.0133 18.5533 22.9467 18.18 23.8C17.82 24.64 17.3067 25.3733 16.64 26C15.9733 26.6267 15.1867 27.12 14.28 27.48C13.3867 27.8267 12.4133 28 11.36 28H6.42ZM29.4509 28L23.7309 14H25.9909L30.7309 25.92L35.5509 14H37.7109L31.9109 28H29.4509Z" fill="white"/>
</svg>
