<svg width="2178" height="2016" viewBox="0 0 2178 2016" fill="none" xmlns="http://www.w3.org/2000/svg">
<path fill-rule="evenodd" clip-rule="evenodd" d="M1115.22 1398.03C1242.48 1427.16 1358.39 1407.69 1433.04 1333.04C1507.69 1258.39 1527.16 1142.48 1498.03 1015.22C1468.9 887.984 1391.21 749.567 1271.82 630.178C1152.43 510.789 1014.02 433.102 886.777 403.975C759.522 374.844 643.608 394.307 568.958 468.958C494.308 543.608 474.844 659.522 503.975 786.777C533.102 914.016 610.79 1052.43 730.178 1171.82C849.567 1291.21 987.984 1368.9 1115.22 1398.03ZM729.471 1172.53C968.472 1411.53 1283.79 1483.71 1433.75 1333.75C1583.71 1183.79 1511.53 868.472 1272.53 629.471C1033.53 390.47 718.212 318.289 568.251 468.251C418.289 618.212 490.47 933.528 729.471 1172.53Z" fill="white"/>
<path fill-rule="evenodd" clip-rule="evenodd" d="M1043.5 1355.3C1170.76 1384.43 1286.67 1364.97 1361.32 1290.32C1435.97 1215.67 1455.43 1099.76 1426.3 972.502C1397.18 845.263 1319.49 706.845 1200.1 587.456C1080.71 468.068 942.294 390.38 815.055 361.253C687.801 332.123 571.886 351.586 497.236 426.236C422.586 500.886 403.123 616.801 432.253 744.055C461.38 871.294 539.068 1009.71 658.457 1129.1C777.845 1248.49 916.263 1326.18 1043.5 1355.3ZM657.749 1129.81C896.75 1368.81 1212.07 1440.99 1362.03 1291.03C1511.99 1141.07 1439.81 825.75 1200.81 586.749C961.807 347.748 646.49 275.568 496.529 425.529C346.568 575.49 418.749 890.806 657.749 1129.81Z" fill="white"/>
<path fill-rule="evenodd" clip-rule="evenodd" d="M979.502 1304.3C1106.76 1333.43 1222.67 1313.97 1297.32 1239.32C1371.97 1164.67 1391.43 1048.76 1362.3 921.502C1333.18 794.263 1255.49 655.845 1136.1 536.456C1016.71 417.068 878.294 339.38 751.055 310.253C623.801 281.123 507.886 300.586 433.236 375.236C358.586 449.886 339.123 565.801 368.253 693.055C397.38 820.294 475.068 958.712 594.457 1078.1C713.845 1197.49 852.263 1275.18 979.502 1304.3ZM593.749 1078.81C832.75 1317.81 1148.07 1389.99 1298.03 1240.03C1447.99 1090.07 1375.81 774.75 1136.81 535.749C897.807 296.748 582.49 224.568 432.529 374.529C282.568 524.49 354.749 839.806 593.749 1078.81Z" fill="white"/>
<path fill-rule="evenodd" clip-rule="evenodd" d="M903.502 1264.3C1030.76 1293.43 1146.67 1273.97 1221.32 1199.32C1295.97 1124.67 1315.43 1008.76 1286.3 881.502C1257.18 754.263 1179.49 615.845 1060.1 496.456C940.712 377.068 802.294 299.38 675.055 270.253C547.801 241.123 431.886 260.586 357.236 335.236C282.586 409.886 263.123 525.801 292.253 653.055C321.38 780.294 399.068 918.712 518.457 1038.1C637.845 1157.49 776.263 1235.18 903.502 1264.3ZM517.749 1038.81C756.75 1277.81 1072.07 1349.99 1222.03 1200.03C1371.99 1050.07 1299.81 734.75 1060.81 495.749C821.807 256.748 506.49 184.568 356.529 334.529C206.568 484.49 278.749 799.806 517.749 1038.81Z" fill="white"/>
<path fill-rule="evenodd" clip-rule="evenodd" d="M818.502 1201.3C945.756 1230.43 1061.67 1210.97 1136.32 1136.32C1210.97 1061.67 1230.43 945.756 1201.3 818.502C1172.18 691.263 1094.49 552.845 975.1 433.456C855.712 314.068 717.294 236.38 590.055 207.253C462.801 178.123 346.886 197.586 272.236 272.236C197.586 346.886 178.123 462.801 207.253 590.055C236.38 717.294 314.068 855.712 433.457 975.1C552.845 1094.49 691.263 1172.18 818.502 1201.3ZM432.749 975.807C671.75 1214.81 987.066 1286.99 1137.03 1137.03C1286.99 987.066 1214.81 671.75 975.807 432.749C736.807 193.748 421.49 121.568 271.529 271.529C121.568 421.49 193.749 736.806 432.749 975.807Z" fill="white"/>
<path fill-rule="evenodd" clip-rule="evenodd" d="M1189.5 1473.3C1316.76 1502.43 1432.67 1482.97 1507.32 1408.32C1581.97 1333.67 1601.43 1217.76 1572.3 1090.5C1543.18 963.263 1465.49 824.845 1346.1 705.456C1226.71 586.068 1088.29 508.38 961.055 479.253C833.801 450.123 717.886 469.586 643.236 544.236C568.586 618.886 549.123 734.801 578.253 862.055C607.38 989.294 685.068 1127.71 804.457 1247.1C923.845 1366.49 1062.26 1444.18 1189.5 1473.3ZM803.749 1247.81C1042.75 1486.81 1358.07 1558.99 1508.03 1409.03C1657.99 1259.07 1585.81 943.75 1346.81 704.749C1107.81 465.748 792.49 393.568 642.529 543.529C492.568 693.49 564.749 1008.81 803.749 1247.81Z" fill="white"/>
<path fill-rule="evenodd" clip-rule="evenodd" d="M1267.5 1547.3C1394.76 1576.43 1510.67 1556.97 1585.32 1482.32C1659.97 1407.67 1679.43 1291.76 1650.3 1164.5C1621.18 1037.26 1543.49 898.845 1424.1 779.456C1304.71 660.068 1166.29 582.38 1039.06 553.253C911.801 524.123 795.886 543.586 721.236 618.236C646.586 692.886 627.123 808.801 656.253 936.055C685.38 1063.29 763.068 1201.71 882.457 1321.1C1001.85 1440.49 1140.26 1518.18 1267.5 1547.3ZM881.749 1321.81C1120.75 1560.81 1436.07 1632.99 1586.03 1483.03C1735.99 1333.07 1663.81 1017.75 1424.81 778.749C1185.81 539.748 870.49 467.568 720.529 617.529C570.568 767.49 642.749 1082.81 881.749 1321.81Z" fill="white"/>
<path fill-rule="evenodd" clip-rule="evenodd" d="M1334.5 1610.3C1461.76 1639.43 1577.67 1619.97 1652.32 1545.32C1726.97 1470.67 1746.43 1354.76 1717.3 1227.5C1688.18 1100.26 1610.49 961.845 1491.1 842.456C1371.71 723.068 1233.29 645.38 1106.06 616.253C978.801 587.123 862.886 606.586 788.236 681.236C713.586 755.886 694.123 871.801 723.253 999.055C752.38 1126.29 830.068 1264.71 949.457 1384.1C1068.85 1503.49 1207.26 1581.18 1334.5 1610.3ZM948.749 1384.81C1187.75 1623.81 1503.07 1695.99 1653.03 1546.03C1802.99 1396.07 1730.81 1080.75 1491.81 841.749C1252.81 602.748 937.49 530.568 787.529 680.529C637.568 830.49 709.749 1145.81 948.749 1384.81Z" fill="white"/>
<path fill-rule="evenodd" clip-rule="evenodd" d="M1412.5 1670.3C1539.76 1699.43 1655.67 1679.97 1730.32 1605.32C1804.97 1530.67 1824.43 1414.76 1795.3 1287.5C1766.18 1160.26 1688.49 1021.85 1569.1 902.456C1449.71 783.068 1311.29 705.38 1184.06 676.253C1056.8 647.123 940.886 666.586 866.236 741.236C791.586 815.886 772.123 931.801 801.253 1059.06C830.38 1186.29 908.068 1324.71 1027.46 1444.1C1146.85 1563.49 1285.26 1641.18 1412.5 1670.3ZM1026.75 1444.81C1265.75 1683.81 1581.07 1755.99 1731.03 1606.03C1880.99 1456.07 1808.81 1140.75 1569.81 901.749C1330.81 662.748 1015.49 590.568 865.529 740.529C715.568 890.49 787.749 1205.81 1026.75 1444.81Z" fill="white"/>
<path fill-rule="evenodd" clip-rule="evenodd" d="M1495.5 1736.3C1622.76 1765.43 1738.67 1745.97 1813.32 1671.32C1887.97 1596.67 1907.43 1480.76 1878.3 1353.5C1849.18 1226.26 1771.49 1087.85 1652.1 968.456C1532.71 849.068 1394.29 771.38 1267.06 742.253C1139.8 713.123 1023.89 732.586 949.236 807.236C874.586 881.886 855.123 997.801 884.253 1125.06C913.38 1252.29 991.068 1390.71 1110.46 1510.1C1229.85 1629.49 1368.26 1707.18 1495.5 1736.3ZM1109.75 1510.81C1348.75 1749.81 1664.07 1821.99 1814.03 1672.03C1963.99 1522.07 1891.81 1206.75 1652.81 967.749C1413.81 728.748 1098.49 656.568 948.529 806.529C798.568 956.49 870.749 1271.81 1109.75 1510.81Z" fill="white"/>
<path fill-rule="evenodd" clip-rule="evenodd" d="M1587.5 1808.3C1714.76 1837.43 1830.67 1817.97 1905.32 1743.32C1979.97 1668.67 1999.43 1552.76 1970.3 1425.5C1941.18 1298.26 1863.49 1159.85 1744.1 1040.46C1624.71 921.068 1486.29 843.38 1359.06 814.253C1231.8 785.123 1115.89 804.586 1041.24 879.236C966.586 953.886 947.123 1069.8 976.253 1197.06C1005.38 1324.29 1083.07 1462.71 1202.46 1582.1C1321.85 1701.49 1460.26 1779.18 1587.5 1808.3ZM1201.75 1582.81C1440.75 1821.81 1756.07 1893.99 1906.03 1744.03C2055.99 1594.07 1983.81 1278.75 1744.81 1039.75C1505.81 800.748 1190.49 728.568 1040.53 878.529C890.568 1028.49 962.749 1343.81 1201.75 1582.81Z" fill="white"/>
</svg>
