<svg width="35" height="35" viewBox="0 0 35 35" fill="none" xmlns="http://www.w3.org/2000/svg">
<path fill-rule="evenodd" clip-rule="evenodd" d="M17.5 22.9688C18.682 22.9683 19.832 22.5849 20.7778 21.8761C21.7236 21.1672 22.4142 20.171 22.7463 19.0366C23.0785 17.9023 23.0341 16.6909 22.62 15.5839C22.2059 14.4768 21.4442 13.5338 20.4491 12.8959C19.4541 12.2581 18.2791 11.9598 17.1003 12.0457C15.9215 12.1317 14.8022 12.5972 13.9102 13.3726C13.0181 14.148 12.4013 15.1916 12.1521 16.347C11.9029 17.5024 12.0347 18.7074 12.5278 19.7816C12.5815 19.9122 12.5826 20.0585 12.5308 20.1898C12.4791 20.3212 12.3786 20.4275 12.2502 20.4864C12.1219 20.5453 11.9758 20.5524 11.8424 20.506C11.7091 20.4596 11.5988 20.3635 11.5347 20.2377C10.943 18.9486 10.7849 17.5025 11.084 16.116C11.3831 14.7295 12.1234 13.4772 13.194 12.5468C14.2646 11.6163 15.6078 11.0578 17.0224 10.9548C18.4371 10.8518 19.847 11.21 21.0411 11.9756C22.2351 12.7411 23.149 13.873 23.6457 15.2015C24.1425 16.5301 24.1955 17.9839 23.7967 19.345C23.3979 20.7062 22.5689 21.9016 21.4337 22.752C20.2986 23.6025 18.9184 24.0623 17.5 24.0625V22.9688Z" fill="white"/>
<path d="M17.5 21.3654V25.666C17.4999 25.718 17.4851 25.7688 17.4572 25.8127C17.4293 25.8565 17.3895 25.8915 17.3425 25.9135C17.2954 25.9356 17.2431 25.9437 17.1915 25.9371C17.14 25.9304 17.0914 25.9092 17.0515 25.876L14.4703 23.7257C14.4395 23.7 14.4147 23.6679 14.3977 23.6316C14.3808 23.5953 14.3719 23.5558 14.3719 23.5157C14.3719 23.4756 14.3808 23.436 14.3977 23.3997C14.4147 23.3635 14.4395 23.3313 14.4703 23.3057L17.0515 21.1554C17.0914 21.1221 17.14 21.1009 17.1915 21.0943C17.2431 21.0876 17.2954 21.0958 17.3425 21.1178C17.3895 21.1399 17.4293 21.1749 17.4572 21.2187C17.4851 21.2625 17.4999 21.3134 17.5 21.3654Z" fill="white"/>
<rect x="0.5" y="0.5" width="34" height="34" rx="5.5" stroke="white"/>
</svg>
